<?xml version="1.0" encoding="UTF-8" standalone="no"?>
<!-- Created with Inkscape (http://www.inkscape.org/) -->

<svg
   version="1.1"
   id="svg1"
   width="59.769054"
   height="59.791046"
   viewBox="0 0 59.769055 59.791046"
   xmlns="http://www.w3.org/2000/svg"
   xmlns:svg="http://www.w3.org/2000/svg">
  <defs
     id="defs1" />
  <g
     id="g22"
     transform="matrix(1.0364827,0,0,1.0275466,-1.1524713,-1.2394607)">
    <g
       id="g21"
       transform="translate(0.04311652,-0.01408729)">
      <path
         style="fill:#000000;fill-rule:evenodd;stroke-width:0.823"
         d="M 1.8533377,33.410169 C -0.15027063,31.2062 2.3041496,18.783828 2.40433,20.787437 2.1782763,19.338843 5.879575,14.079103 5.879575,14.079103 l 17.656434,10.324675 c 0,0 1.717828,1.22196 -0.106257,3.081464"
         id="path9" />
      <path
         style="fill:#000000;fill-rule:evenodd;stroke-width:0.823"
         d="m 7.5,11.53125 c 0,0 4.09375,-6.03125 13.125,-8.84375 0.0082,-0.0027 6.333446,10.592849 6.333446,10.592849 0,0 4.043767,6.518641 -3.734408,4.154253 C 15.445864,15.070213 7.5,11.53125 7.5,11.53125 Z"
         id="path10" />
      <path
         style="fill:#000000;fill-rule:evenodd;stroke-width:0.877012"
         d="m 36.134575,1.2203204 -12.843252,0.064413 c 0,0 2.68572,4.9598422 10.226395,11.4011956 0,0 1.576032,1.017196 2.091657,-1.264054 0.515625,-2.28125 0.5252,-10.2015546 0.5252,-10.2015546 z"
         id="path11" />
      <path
         style="fill:#000000;fill-rule:evenodd;stroke-width:0.854924"
         d="m 38.426834,1.8340582 c -0.06629,0.8584063 -0.287262,8.3933058 3.623923,10.9446788 0,0 2.519067,2.050638 5.325397,-6.628803"
         id="path12" />
      <path
         style="fill:#000000;fill-rule:evenodd;stroke-width:0.835285"
         d="m 49.378006,8.6841552 4.848245,5.4800778 c 0,0 -3.141117,3.646019 -5.826999,2.519068 -2.685883,-1.126952 0.978754,-7.9991458 0.978754,-7.9991458 z"
         id="path13" />
      <path
         style="fill:#999999;fill-rule:evenodd;stroke-width:0.823"
         d="m 58.09375,23.65625 c 0,0 -2.984375,1.453125 -5.640625,0.109375 0,0 -2.59375,-0.34375 -0.15625,-4.1875 2.4375,-3.84375 3.25,-2.609375 3.25,-2.609375"
         id="path15" />
      <path
         style="fill:#999999;fill-rule:evenodd;stroke-width:0.823"
         d="m 58.734057,26.074563 -0.110485,8.109631 c 0,0 -6.14299,-1.237437 -6.120893,-4.70668 0.0221,-3.469243 6.231378,-3.402951 6.231378,-3.402951 z"
         id="path16" />
      <path
         style="fill:#999999;fill-rule:evenodd;stroke-width:0.823"
         d="m 58.225824,36.703261 c 0,0 -0.0221,3.64602 -2.717942,7.292039 -5.855728,-5.701048 -5.08233,-6.14299 -4.706679,-7.468815 0.37565,-1.325826 7.778174,-1.14905 7.424621,0.176776 z"
         id="path17" />
      <path
         style="fill:#999999;fill-rule:evenodd;stroke-width:0.823"
         d="m 54.049475,46.602756 -6.363962,6.783806 c 0,0 -3.513436,-7.73398 -1.038563,-10.915961 2.474874,-3.181981 7.402525,4.132155 7.402525,4.132155 z"
         id="path18" />
      <path
         style="fill:#999999;fill-rule:evenodd;stroke-width:0.823"
         d="m 44.901281,55.06594 -10.739185,3.756505 c 0,0 1.856156,-14.451495 5.789437,-14.142135 3.933282,0.309359 4.949748,10.38563 4.949748,10.38563 z"
         id="path19" />
      <path
         style="fill:#999999;fill-rule:evenodd;stroke-width:0.823"
         d="m 15.114407,55.640465 c 0,0 8.485282,5.61266 15.512155,3.137786 0,0 3.137787,-15.688932 1.811962,-16.130873 -1.325826,-0.441942 -2.253904,-1.370019 -17.324117,12.993087 z"
         id="path20" />
      <path
         style="fill:#999999;fill-rule:evenodd;stroke-width:0.823"
         d="m 1.4584077,36.415999 c 0,0 -0.3093592,9.987883 10.8717663,17.589281 0,0 17.357326,-17.25528 13.919826,-19.56778 C 22.8125,32.125 1.4584077,36.415999 1.4584077,36.415999 Z"
         id="path21" />
    </g>
    <path
       style="fill:#999999;fill-rule:evenodd;stroke-width:0.823"
       d="m 55.582031,16.957031 c 0,0 2.671875,6.558594 2.546875,6.683594"
       id="path22" />
  </g>
</svg>
